<?xml version="1.0" standalone="no"?>
<!DOCTYPE svg PUBLIC "-//W3C//DTD SVG 20010904//EN"
 "http://www.w3.org/TR/2001/REC-SVG-20010904/DTD/svg10.dtd">
<svg version="1.0" xmlns="http://www.w3.org/2000/svg"
 width="260.000000pt" height="260.000000pt" viewBox="0 0 260.000000 260.000000"
 preserveAspectRatio="xMidYMid meet">
<metadata>
Created by potrace 1.11, written by Peter Selinger 2001-2013
</metadata>
<g transform="translate(0.000000,260.000000) scale(0.100000,-0.100000)"
fill="#000000" stroke="none">
<path d="M350 1321 c0 -801 3 -1222 10 -1226 6 -3 10 -2 10 4 0 6 11 13 25 17
14 3 25 10 25 15 0 5 4 9 10 9 5 0 39 18 75 40 36 22 69 40 74 40 5 0 14 7 21
15 7 8 16 12 21 9 5 -3 9 0 9 5 0 6 7 11 15 11 8 0 15 5 15 10 0 6 6 10 14 10
7 0 25 9 40 21 14 11 26 18 26 14 0 -3 15 4 33 17 34 24 60 39 145 84 28 15
52 31 52 36 0 4 3 7 8 6 4 -2 35 14 68 35 34 20 64 37 67 37 3 0 26 14 50 30
25 17 50 30 55 30 6 0 15 7 20 16 5 9 12 15 16 14 12 -4 66 22 66 31 0 5 6 9
14 9 8 0 21 6 28 13 15 15 49 31 61 29 4 -1 7 2 7 8 0 5 7 10 15 10 8 0 15 3
15 8 0 4 15 14 32 21 18 8 48 26 68 39 19 13 44 28 55 33 11 5 43 23 70 39 28
16 57 33 65 37 8 3 17 9 20 13 3 3 21 14 40 23 19 10 49 27 65 37 17 11 46 28
65 38 88 47 105 57 108 64 2 5 10 8 18 8 8 0 14 5 14 10 0 6 3 9 8 8 7 -2 75
34 132 71 14 9 36 22 50 28 14 7 43 24 65 38 22 14 50 31 63 37 12 6 22 15 22
20 0 5 4 7 9 3 5 -3 16 1 24 9 8 8 17 12 21 9 3 -4 6 -2 6 3 0 5 -21 20 -47
34 -27 13 -50 27 -53 30 -3 3 -16 11 -29 18 -13 8 -40 23 -60 34 -20 12 -61
35 -91 51 -30 17 -56 34 -58 39 -2 4 -12 8 -22 8 -10 0 -20 4 -22 8 -3 8 -215
132 -225 132 -2 0 -11 7 -20 15 -8 8 -19 13 -24 10 -5 -4 -9 -2 -9 3 0 5 -12
15 -27 23 -16 7 -48 26 -73 40 -108 64 -137 80 -162 90 -16 6 -28 15 -28 21 0
6 -8 7 -17 4 -10 -4 -14 -4 -10 0 7 8 -19 26 -65 45 -16 6 -28 14 -28 18 0 4
-16 13 -35 21 -19 8 -35 17 -35 22 0 4 -4 8 -9 8 -5 0 -44 20 -85 45 -42 25
-81 45 -86 45 -6 0 -10 3 -10 8 0 4 -12 13 -27 19 -16 7 -44 23 -63 35 -19 12
-60 35 -90 51 -30 16 -66 38 -79 48 -13 11 -30 19 -37 19 -8 0 -14 5 -14 11 0
5 -4 7 -10 4 -5 -3 -10 -1 -10 4 0 6 -7 11 -15 11 -8 0 -15 5 -15 11 0 5 -4 8
-9 5 -4 -3 -19 3 -32 14 -12 12 -33 23 -46 26 -13 4 -23 10 -23 15 0 5 -6 9
-14 9 -7 0 -19 7 -26 15 -7 8 -16 12 -21 9 -5 -3 -9 0 -9 5 0 6 -7 11 -15 11
-8 0 -15 5 -15 10 0 6 -9 10 -20 10 -11 0 -20 4 -20 8 0 10 -112 68 -123 64
-5 -1 -6 2 -3 7 6 9 -14 21 -46 27 -17 4 -18 -61 -18 -1215z m784 465 c15 -13
26 -26 26 -30 0 -7 12 -23 43 -57 9 -10 17 -23 17 -27 0 -5 9 -18 20 -30 12
-12 18 -22 15 -22 -3 0 3 -10 15 -22 11 -12 20 -27 20 -34 0 -7 3 -14 8 -16
10 -4 77 -133 100 -194 10 -27 22 -58 27 -69 4 -11 9 -24 10 -30 0 -5 4 -21 8
-35 11 -41 18 -82 22 -137 3 -41 1 -53 -10 -54 -30 -3 -55 -7 -57 -9 -3 -3
-75 -8 -163 -13 -33 -1 -66 -6 -73 -10 -6 -5 -12 -5 -12 0 0 4 -30 9 -68 9
-111 2 -172 7 -172 13 0 3 -12 6 -27 7 -16 0 -37 3 -48 6 -11 3 -33 8 -50 12
-16 5 -44 14 -62 22 -17 8 -36 14 -42 14 -6 0 -11 5 -11 12 0 6 -3 8 -6 5 -4
-3 -15 -2 -25 4 -20 10 -27 59 -9 59 6 0 9 3 8 8 -1 8 7 32 30 82 9 19 15 38
14 43 -1 4 2 7 7 7 8 0 24 37 22 53 -1 4 3 7 8 7 5 0 12 11 15 25 4 14 11 25
16 25 6 0 10 9 10 19 0 11 3 21 8 23 4 2 26 32 49 68 23 36 56 80 72 98 17 18
31 34 31 37 1 6 70 74 70 69 0 -2 8 4 18 14 34 31 87 70 99 72 1 0 13 -11 27
-24z"/>
</g>
</svg>
